{
  "asset": { "version": "2.0", "generator": "Crowbar sample generator" },
  "scene": 0,
  "scenes": [ { "nodes": [ 0 ] } ],
  "nodes": [ { "name": "Crate", "mesh": 0 } ],
  "meshes": [
    {
      "name": "Crate",
      "primitives": [
        {
          "attributes": { "POSITION": 0, "NORMAL": 1, "TEXCOORD_0": 2 },
          "indices": 3,
          "material": 0,
          "mode": 4
        }
      ]
    }
  ],
  "materials": [
    {
      "name": "Crate",
      "pbrMetallicRoughness": {
        "baseColorFactor": [ 1.0, 1.0, 1.0, 1.0 ],
        "baseColorTexture": { "index": 0 },
        "metallicFactor": 0.12,
        "roughnessFactor": 0.5,
        "metallicRoughnessTexture": { "index": 1 }
      }
    }
  ],
  "accessors": [
    { "bufferView": 0, "componentType": 5126, "count": 24, "type": "VEC3", "min": [ -0.5, -0.5, -0.5 ], "max": [ 0.5, 0.5, 0.5 ] },
    { "bufferView": 1, "componentType": 5126, "count": 24, "type": "VEC3" },
    { "bufferView": 2, "componentType": 5126, "count": 24, "type": "VEC2" },
    { "bufferView": 3, "componentType": 5123, "count": 36, "type": "SCALAR" }
  ],
  "bufferViews": [
    { "buffer": 0, "byteOffset": 0, "byteLength": 288, "target": 34962 },
    { "buffer": 0, "byteOffset": 288, "byteLength": 288, "target": 34962 },
    { "buffer": 0, "byteOffset": 576, "byteLength": 192, "target": 34962 },
    { "buffer": 0, "byteOffset": 768, "byteLength": 72, "target": 34963 }
  ],
  "buffers": [ { "byteLength": 840, "uri": "Crate.bin" } ],
  "images": [
    { "uri": "Crate_basecolor.png" },
    { "uri": "Crate_metallicRoughness.png" }
  ],
  "textures": [
    { "source": 0 },
    { "source": 1 }
  ]
}